<?xml version="1.0" standalone="no"?>
<!DOCTYPE svg PUBLIC "-//W3C//DTD SVG 20010904//EN"
 "http://www.w3.org/TR/2001/REC-SVG-20010904/DTD/svg10.dtd">
<svg version="1.0" xmlns="http://www.w3.org/2000/svg"
 width="1024.000000pt" height="1024.000000pt" viewBox="0 0 1024.000000 1024.000000"
 preserveAspectRatio="xMidYMid meet">
<metadata>
Created by potrace 1.14, written by Peter Selinger 2001-2017
</metadata>
<g transform="translate(0.000000,1024.000000) scale(0.100000,-0.100000)"
fill="#000000" stroke="none">
<path d="M0 5120 l0 -5120 5120 0 5120 0 0 5120 0 5120 -5120 0 -5120 0 0
-5120z m4282 3361 c33 -34 38 -47 38 -86 0 -59 -20 -96 -64 -120 l-36 -20 0
-236 0 -237 28 -7 c78 -19 132 -86 132 -165 0 -127 -131 -204 -245 -144 -46
24 -85 89 -85 142 0 48 37 121 70 140 26 15 28 21 34 105 3 50 6 159 6 243 l0
154 -40 20 c-132 67 -69 270 80 256 36 -3 51 -11 82 -45z m1884 24 c66 -43 84
-139 38 -195 -15 -17 -39 -37 -55 -46 l-29 -15 0 -236 0 -236 44 -41 c75 -70
85 -162 25 -231 -104 -118 -289 -54 -289 100 0 30 8 65 19 85 21 40 74 80 106
80 13 0 26 7 29 16 3 9 6 116 6 239 l0 223 -34 21 c-70 43 -90 111 -54 180 40
77 125 101 194 56z m-1570 -111 c34 -23 57 -80 51 -128 -4 -32 -14 -49 -46
-76 l-41 -36 0 -917 0 -917 -30 0 -30 0 0 923 0 923 -36 13 c-44 16 -79 84
-69 131 20 90 124 134 201 84z m299 12 c73 -31 99 -136 50 -195 -14 -16 -35
-33 -45 -36 -20 -6 -20 -22 -20 -931 l0 -924 -35 0 -35 0 0 924 c0 909 0 925
-20 931 -10 3 -31 20 -45 36 -50 60 -25 163 49 195 40 17 59 17 101 0z m579 0
c49 -20 76 -60 76 -113 0 -54 -24 -98 -62 -114 l-28 -11 0 -924 0 -924 -30 0
-30 0 0 925 c0 841 -1 925 -16 925 -9 0 -31 15 -50 34 -28 28 -34 41 -34 78 0
54 30 104 73 123 41 18 60 18 101 1z m335 -4 c40 -21 71 -73 71 -117 0 -41
-35 -95 -70 -108 l-30 -11 0 -923 0 -923 -30 0 c-26 0 -30 4 -36 36 -4 20 -4
435 -2 921 l6 885 -33 19 c-87 52 -79 173 16 221 43 23 66 23 108 0z m-3183
-108 c73 -35 107 -148 68 -229 l-17 -36 49 -52 c27 -29 107 -112 179 -184
l129 -133 28 27 c19 18 41 27 75 30 151 13 204 -191 66 -258 -79 -38 -164 4
-187 94 -11 43 -32 67 -204 240 l-192 194 -53 -5 c-189 -15 -250 223 -82 316
30 17 102 14 141 -4z m5173 1 c16 -8 40 -28 55 -45 96 -115 11 -280 -139 -268
l-54 5 -195 -196 c-162 -164 -196 -203 -205 -237 -14 -52 -52 -91 -102 -104
-33 -9 -47 -8 -85 9 -36 16 -49 29 -65 67 -27 59 -19 103 25 151 28 31 40 37
87 40 48 4 59 1 94 -24 l40 -29 170 174 c93 96 171 180 173 188 2 7 -4 24 -14
38 -45 70 0 202 81 236 32 14 104 11 134 -5z m-4035 -261 c31 -31 11 -84 -32
-84 -50 0 -73 37 -47 76 18 28 56 32 79 8z m1416 -860 l0 -855 -42 3 -43 3 -3
853 -2 852 45 0 45 0 0 -856z m-3203 588 c43 -31 63 -79 63 -153 l0 -64 277
-277 278 -278 246 0 245 0 28 29 c68 71 166 31 166 -68 0 -88 -112 -122 -170
-52 l-25 31 -265 0 -265 0 -280 280 c-269 270 -281 280 -305 269 -79 -37 -153
-28 -206 25 -45 45 -61 102 -44 160 12 45 58 101 95 117 36 16 129 5 162 -19z
m6524 -7 c43 -42 59 -77 59 -130 0 -129 -120 -204 -239 -150 l-44 19 -276
-282 -276 -283 -262 1 -261 0 -35 -35 c-41 -41 -81 -46 -121 -14 -38 30 -49
64 -36 105 15 44 45 64 93 64 30 0 45 -7 67 -30 l28 -30 244 0 244 0 275 275
274 276 0 67 c0 78 21 124 76 160 29 20 44 23 96 20 53 -3 68 -9 94 -33z
m-4721 -50 c87 -45 104 -169 32 -226 l-27 -21 -3 -344 -3 -344 80 -84 81 -85
0 -78 c0 -81 -9 -103 -41 -103 -23 0 -29 20 -29 96 l0 64 -75 71 -75 72 0 363
0 364 -29 0 c-63 0 -120 84 -107 155 17 88 118 140 196 100z m2836 -1 c46 -22
74 -70 74 -129 0 -42 -5 -52 -39 -86 -25 -25 -48 -39 -65 -39 l-26 0 0 -351
c0 -234 -4 -357 -11 -371 -6 -11 -42 -49 -79 -85 l-69 -65 -3 -76 c-3 -75 -4
-77 -28 -77 -25 0 -25 1 -28 92 l-3 91 76 73 75 73 0 351 0 351 -30 29 c-69
66 -53 177 32 218 42 21 81 21 124 1z m-2426 -670 c38 -23 60 -64 60 -114 0
-34 -6 -48 -34 -76 -30 -30 -40 -34 -85 -34 -72 0 -112 36 -118 106 -5 44 -2
54 23 83 44 52 101 65 154 35z m2014 1 c41 -20 66 -63 66 -115 0 -34 -6 -48
-34 -76 -30 -30 -40 -34 -86 -34 -43 0 -56 5 -80 28 -56 57 -45 151 22 192 39
24 69 25 112 5z m-4226 -62 c78 -58 92 -160 32 -234 l-33 -41 161 -160 160
-161 642 -2 643 -3 74 -74 c87 -86 99 -104 82 -124 -21 -26 -44 -15 -119 61
l-74 75 -641 0 -640 0 -174 180 c-171 178 -174 180 -216 180 -168 0 -204 253
-45 319 37 16 117 7 148 -16z m6510 -1 c16 -12 40 -43 52 -68 51 -105 -10
-219 -124 -231 -46 -6 -52 -11 -218 -184 l-172 -179 -644 0 -644 0 -78 -76
c-80 -77 -112 -91 -118 -49 -2 14 23 46 80 102 l83 83 650 5 c357 3 652 9 655
13 3 4 73 75 154 159 l149 152 -31 31 c-35 35 -57 99 -47 139 10 43 51 96 86
115 46 23 126 17 167 -12z m-5333 -198 c72 -34 86 -143 25 -196 -39 -36 -113
-39 -153 -7 -30 23 -52 86 -44 121 20 80 98 117 172 82z m4065 1 c38 -19 60
-63 60 -115 0 -52 -13 -76 -50 -95 -60 -31 -140 -13 -166 36 -57 111 50 229
156 174z m-2968 -126 c40 -48 39 -116 -1 -161 -27 -30 -35 -33 -86 -33 -51 0
-59 3 -86 33 -22 24 -29 42 -29 73 0 84 51 133 130 125 36 -3 50 -11 72 -37z
m1912 31 c14 -5 35 -24 46 -42 42 -69 13 -157 -59 -179 -50 -15 -86 -6 -122
31 -25 24 -29 37 -29 80 0 46 4 56 34 86 36 36 78 44 130 24z m-4234 -230 c11
-11 20 -29 20 -39 0 -41 -59 -68 -88 -39 -20 20 -14 65 10 82 29 20 34 20 58
-4z m6498 -2 c28 -28 2 -88 -38 -88 -40 0 -66 60 -38 88 7 7 24 12 38 12 14 0
31 -5 38 -12z m-2132 -207 c55 -25 101 -83 114 -145 8 -35 10 -341 8 -996 l-3
-945 -28 -47 c-18 -31 -44 -57 -75 -75 l-47 -28 -1095 -3 c-770 -2 -1111 1
-1148 9 -63 13 -117 55 -143 114 -18 38 -19 93 -19 1003 0 1053 -3 1001 58
1066 15 16 45 37 67 47 38 18 91 19 1155 19 1063 0 1117 -1 1156 -19z m-4569
-121 c18 -10 39 -33 48 -50 l16 -30 252 0 252 1 20 32 c11 18 37 40 58 51 50
24 98 15 144 -28 31 -28 37 -40 40 -87 3 -42 0 -61 -17 -87 -21 -34 -72 -62
-112 -62 -42 0 -105 39 -123 75 l-16 35 -249 0 c-210 0 -250 -2 -250 -14 0
-26 -51 -76 -91 -87 -78 -24 -160 27 -175 108 -5 29 -2 47 17 83 40 74 120
101 186 60z m6199 -5 c14 -9 34 -31 44 -48 l19 -32 243 3 243 3 27 39 c66 94
206 67 237 -46 24 -90 -40 -174 -132 -174 -43 0 -98 36 -117 77 l-15 33 -247
0 c-208 0 -248 -2 -248 -14 0 -26 -51 -76 -91 -87 -78 -24 -158 26 -173 106
-10 50 26 122 74 147 40 22 97 19 136 -7z m-4778 -19 c55 -28 74 -115 38 -170
-23 -35 -79 -59 -121 -52 -17 4 -44 19 -59 35 -93 97 22 249 142 187z m341 -1
c30 -15 61 -69 61 -105 0 -40 -30 -88 -67 -105 -48 -23 -99 -14 -138 25 -25
26 -30 38 -30 81 0 46 4 54 37 85 42 38 88 45 137 19z m3437 -19 c30 -30 34
-40 34 -86 0 -43 -5 -56 -28 -80 -53 -53 -138 -49 -182 8 -14 17 -20 40 -20
74 0 43 4 54 34 84 29 29 41 34 81 34 40 0 52 -5 81 -34z m323 19 c38 -19 65
-77 57 -123 -11 -74 -103 -123 -166 -90 -32 17 -70 74 -70 105 0 38 30 92 59
108 34 19 85 19 120 0z m-5524 -309 c27 -12 46 -31 70 -74 1 -1 450 -2 999 -2
l996 0 0 -35 0 -35 -994 0 -995 0 -13 -27 c-46 -94 -172 -89 -221 10 -23 45
-16 85 21 128 41 49 79 59 137 35z m6982 -30 c63 -69 36 -177 -52 -206 -57
-19 -128 16 -148 73 -6 16 -64 17 -1017 17 l-1010 0 0 35 0 35 1008 0 1007 0
28 36 c36 44 61 55 112 49 30 -3 48 -13 72 -39z m-6994 -257 c12 -6 29 -20 38
-31 15 -19 36 -19 1027 -18 l1012 1 0 -36 0 -35 -1009 0 -1009 0 -11 -30 c-12
-37 -69 -64 -111 -55 -72 16 -102 115 -50 170 40 43 75 53 113 34z m6938 -5
c32 -16 59 -66 59 -108 0 -33 -44 -83 -80 -91 -40 -9 -95 19 -110 56 l-12 29
-1014 0 -1014 0 0 35 0 35 1020 0 c907 0 1021 2 1026 15 7 18 52 44 77 45 10
0 32 -7 48 -16z m-4858 -356 l0 -43 -851 -3 -852 -2 0 22 c0 13 -3 33 -6 45
l-6 23 853 2 c470 2 856 2 858 1 2 -2 4 -22 4 -45z m4405 -4 l-3 -39 -857 -3
-858 -2 0 45 0 45 853 2 c468 2 856 0 860 -3 5 -4 7 -24 5 -45z m479 -187 c44
-40 38 -128 -11 -162 -11 -8 -38 -15 -59 -15 -30 0 -45 7 -67 30 l-28 30
-1016 0 -1016 0 0 35 0 35 1018 0 1017 0 17 30 c28 49 100 58 145 17z m-6930
-12 l28 -35 1008 0 1007 0 0 -35 0 -35 -1006 0 -1006 0 -35 -30 c-37 -33 -69
-38 -113 -15 -57 29 -68 102 -24 154 22 26 33 31 69 31 38 0 48 -5 72 -35z
m-7 -224 c14 -10 34 -31 44 -47 l20 -29 993 3 993 2 0 -35 0 -35 -998 0 -997
0 -13 -30 c-28 -62 -126 -81 -180 -35 -57 48 -66 122 -20 180 42 53 104 63
158 26z m6940 1 c68 -49 75 -139 15 -199 -27 -27 -41 -33 -75 -33 -51 0 -96
25 -113 62 l-12 28 -1007 0 -1008 0 0 35 0 35 1004 0 1004 0 23 36 c38 63 110
78 169 36z m-6942 -329 c14 -11 33 -34 41 -51 l16 -32 247 0 247 0 16 29 c34
67 104 93 173 66 52 -21 82 -67 82 -126 0 -56 -16 -87 -59 -116 -65 -44 -158
-20 -194 50 l-19 37 -243 0 -243 0 -21 -35 c-41 -70 -124 -94 -188 -55 -93 56
-94 175 -2 238 41 28 106 26 147 -5z m6191 -1 c14 -10 32 -33 40 -50 l16 -32
242 0 241 0 21 35 c61 103 194 98 242 -10 49 -110 -46 -221 -160 -186 -40 11
-91 61 -91 87 0 12 -40 14 -245 14 l-244 0 -15 -27 c-22 -43 -60 -73 -99 -80
-137 -22 -216 137 -117 236 17 16 40 32 53 34 37 8 90 -1 116 -21z m-4763 -23
c81 -76 32 -209 -76 -209 -67 0 -120 55 -120 123 0 31 38 88 70 105 34 18 97
8 126 -19z m325 14 c31 -18 59 -67 59 -103 0 -36 -28 -85 -59 -103 -114 -67
-232 73 -149 178 36 46 98 58 149 28z m3409 2 c76 -40 81 -160 8 -206 -67 -41
-157 -7 -177 68 -29 103 74 187 169 138z m351 -8 c39 -26 62 -81 52 -127 -14
-71 -105 -110 -173 -75 -79 41 -77 169 3 209 45 22 78 20 118 -7z m-3507 -294
c7 -19 -36 -74 -110 -142 l-56 -51 -637 0 -637 0 -162 -164 c-89 -90 -162
-168 -162 -173 0 -5 11 -20 25 -33 32 -30 49 -82 42 -131 -23 -175 -278 -177
-317 -3 -23 99 58 204 158 204 29 0 31 2 328 307 l61 63 638 0 639 0 77 75
c76 74 99 84 113 48z m2911 -53 l69 -70 645 0 644 0 51 -52 c28 -29 108 -112
177 -184 115 -119 130 -132 170 -138 61 -10 104 -40 128 -90 47 -95 9 -189
-93 -231 -75 -32 -164 5 -197 81 -26 59 -18 110 26 168 l33 43 -160 167 -160
166 -645 0 -645 0 -72 73 c-99 101 -101 104 -86 122 22 27 44 16 115 -55z
m-2095 -1004 l0 -925 29 -17 c39 -23 61 -64 61 -114 0 -36 -6 -48 -39 -81 -32
-33 -45 -39 -80 -39 -80 0 -131 49 -131 125 0 50 23 89 65 109 l35 17 0 924 0
925 30 0 30 0 0 -924z m320 0 l0 -925 29 -17 c80 -47 81 -177 1 -219 -126 -65
-252 84 -159 190 17 19 37 35 45 35 12 0 14 141 14 930 l0 930 35 0 35 0 0
-924z m300 163 l0 -760 -42 3 -43 3 -3 735 c-1 404 0 745 3 758 4 18 12 22 45
22 l40 0 0 -761z m280 -164 l0 -924 29 -16 c44 -22 61 -53 61 -110 0 -57 -17
-88 -60 -110 -64 -33 -143 -10 -176 50 -33 61 0 151 64 176 l22 9 0 925 0 925
30 0 30 0 0 -925z m320 -3 l5 -923 25 -12 c74 -37 91 -141 32 -200 -63 -62
-175 -41 -208 40 -26 61 4 141 62 163 l23 9 -6 658 c-3 362 -2 779 2 926 l7
268 27 -3 26 -3 5 -923z m-3836 835 c13 -36 -2 -61 -38 -65 -35 -4 -56 13 -56
47 0 36 19 53 55 49 22 -2 32 -10 39 -31z m6484 21 c7 -7 12 -24 12 -38 0 -14
-5 -31 -12 -38 -7 -7 -24 -12 -38 -12 -14 0 -31 5 -38 12 -7 7 -12 24 -12 38
0 14 5 31 12 38 7 7 24 12 38 12 14 0 31 -5 38 -12z m-4497 -39 c6 -13 9 -59
7 -119 l-3 -99 -78 -73 -77 -73 1 -345 2 -345 33 -37 c40 -45 52 -95 32 -146
-40 -105 -203 -111 -251 -9 -22 46 -21 72 3 123 20 41 66 74 104 74 14 0 16
37 16 358 l0 358 75 74 75 74 0 84 c0 86 10 122 35 122 8 0 19 -9 26 -21z
m2453 15 c13 -5 16 -23 16 -96 l0 -90 78 -80 77 -80 3 -359 c2 -313 5 -359 18
-359 28 0 75 -31 94 -63 13 -20 20 -50 20 -80 0 -40 -5 -53 -34 -84 -30 -33
-39 -37 -93 -41 -56 -4 -62 -2 -96 28 -66 57 -69 151 -7 204 l30 25 0 348 0
349 -75 74 -75 74 0 112 c0 81 4 114 13 117 6 3 13 6 14 6 1 1 8 -2 17 -5z
m-2144 -111 c22 -20 33 -40 37 -70 11 -81 -33 -133 -111 -133 -75 0 -116 42
-116 121 0 33 6 47 34 75 29 29 41 34 80 34 36 0 52 -6 76 -27z m1956 -7 c28
-28 34 -42 34 -76 0 -79 -38 -120 -115 -120 -77 0 -115 41 -115 120 0 34 6 48
34 76 29 29 41 34 81 34 40 0 52 -5 81 -34z m-3036 -61 c42 -22 63 -68 57
-123 -6 -58 -39 -92 -97 -99 -120 -16 -183 116 -95 204 38 38 85 44 135 18z
m4075 -7 c83 -65 58 -195 -40 -214 -112 -21 -184 86 -125 184 34 55 114 70
165 30z m-3046 -263 c32 -16 61 -69 61 -110 0 -62 -55 -115 -120 -115 -117 0
-165 157 -68 224 28 20 90 21 127 1z m2029 -1 c71 -49 67 -170 -8 -209 -68
-35 -150 -5 -171 64 -15 51 -5 87 36 128 27 27 40 33 77 33 24 0 54 -7 66 -16z
m950 -51 l23 -25 257 2 257 1 287 -291 287 -292 46 22 c116 56 235 -20 235
-150 0 -69 -26 -114 -85 -147 -49 -28 -96 -29 -151 -4 -61 28 -89 79 -89 163
l0 67 -279 281 -280 280 -241 0 -242 0 -12 -24 c-37 -68 -146 -56 -171 18 -9
29 -8 41 6 72 31 65 105 78 152 27z m-3914 -4 c18 -21 26 -42 26 -69 0 -87
-112 -120 -171 -51 l-25 31 -245 0 -245 0 -275 -282 -274 -281 0 -67 c0 -81
-28 -129 -91 -160 -69 -34 -133 -23 -190 32 -64 61 -67 157 -7 229 51 60 125
74 200 38 l44 -21 287 291 287 292 261 -1 261 0 23 25 c36 38 100 35 134 -6z
m-31 -574 c59 -41 78 -146 35 -200 -24 -31 -74 -55 -113 -55 -30 0 -101 34
-108 52 -4 10 -8 10 -14 2 -4 -7 -86 -91 -181 -188 -168 -172 -172 -177 -157
-199 57 -81 29 -199 -57 -243 -69 -36 -172 -10 -215 55 -27 40 -31 126 -9 169
33 63 101 98 172 88 l45 -6 192 196 c162 166 195 204 208 245 19 58 34 78 74
96 34 15 97 10 128 -12z m1063 6 c55 -25 87 -71 92 -136 7 -88 -42 -158 -122
-174 l-31 -7 -3 -246 -2 -245 29 -13 c83 -34 101 -165 31 -224 -92 -77 -230
-14 -230 104 0 48 30 106 60 115 49 16 50 21 50 275 l0 238 -35 21 c-38 22
-74 86 -75 132 0 65 46 139 105 165 42 18 83 17 131 -5z m1854 -4 c30 -16 51
-37 67 -67 41 -78 25 -151 -46 -212 l-41 -35 0 -245 0 -246 23 -6 c42 -10 79
-60 85 -114 6 -68 -16 -108 -75 -134 -81 -36 -157 -5 -189 77 -16 43 -16 47 1
91 12 32 28 52 56 70 l39 24 -2 242 -3 242 -35 9 c-82 21 -125 84 -118 172 5
65 37 111 92 136 55 25 94 24 146 -4z m1046 7 c32 -15 65 -56 78 -99 3 -11 96
-112 205 -225 l199 -205 59 0 c50 0 66 -5 96 -28 119 -91 80 -267 -66 -301
-40 -9 -102 10 -141 45 -58 50 -66 149 -18 216 l20 29 -181 183 c-149 150
-184 181 -197 172 -79 -59 -125 -66 -181 -28 -47 31 -71 82 -64 131 15 98 106
150 191 110z m-842 -577 c13 -36 -2 -61 -38 -65 -35 -4 -56 13 -56 47 0 36 19
53 55 49 22 -2 32 -10 39 -31z"/>
<path d="M4154 8442 c-6 -4 -16 -17 -23 -29 -24 -46 35 -103 78 -76 54 34 37
113 -24 113 -11 0 -25 -4 -31 -8z"/>
<path d="M4173 7705 c-62 -27 -79 -108 -33 -163 42 -50 126 -45 160 11 38 62
19 126 -46 153 -40 17 -41 17 -81 -1z m86 -67 c18 -49 -24 -92 -68 -69 -23 13
-29 59 -9 79 21 21 68 15 77 -10z"/>
<path d="M6064 8442 c-13 -8 -34 -46 -34 -61 0 -19 39 -51 63 -51 50 0 76 70
39 103 -19 18 -49 22 -68 9z"/>
<path d="M5991 7679 c-35 -35 -40 -73 -16 -119 19 -37 43 -50 92 -50 73 0 126
89 87 147 -27 42 -45 52 -91 53 -33 0 -48 -6 -72 -31z m113 -35 c26 -67 -42
-117 -80 -59 -25 39 -6 75 40 75 22 0 36 -6 40 -16z"/>
<path d="M2501 8236 c-91 -50 -52 -195 52 -196 31 0 45 7 68 31 82 88 -16 222
-120 165z m79 -56 c26 -26 25 -52 -1 -76 -19 -17 -23 -17 -47 -3 -36 20 -41
61 -10 83 29 20 34 20 58 -4z"/>
<path d="M3096 7639 c-38 -30 -36 -79 6 -114 23 -20 38 -25 57 -20 60 14 82
92 38 133 -29 28 -67 28 -101 1z m78 -22 c21 -16 18 -55 -6 -70 -26 -17 -68 7
-68 37 0 39 41 57 74 33z"/>
<path d="M7678 8234 c-35 -18 -48 -43 -48 -89 0 -46 53 -105 95 -105 60 0 104
45 105 106 0 36 -5 47 -35 73 -39 34 -74 39 -117 15z m67 -40 c24 -9 37 -51
25 -75 -12 -22 -59 -26 -78 -7 -19 19 -14 55 10 72 26 19 22 18 43 10z"/>
<path d="M7075 7635 c-49 -49 -16 -125 55 -125 30 0 43 6 59 26 28 35 26 65
-4 98 -32 34 -77 35 -110 1z m81 -13 c18 -12 24 -42 14 -63 -12 -22 -59 -26
-78 -7 -37 37 21 100 64 70z"/>
<path d="M1824 7711 c-44 -27 -60 -77 -41 -124 46 -110 197 -80 197 40 0 86
-81 130 -156 84z m91 -47 c23 -24 15 -66 -17 -83 -24 -14 -28 -14 -47 3 -25
23 -27 58 -5 80 20 21 48 20 69 0z"/>
<path d="M8341 7714 c-84 -59 -43 -194 60 -194 75 0 121 81 87 155 -23 50
-101 71 -147 39z m95 -59 c19 -30 11 -62 -21 -77 -36 -16 -65 5 -65 47 0 55
56 75 86 30z"/>
<path d="M3676 7618 c-9 -12 -16 -30 -16 -40 0 -24 35 -58 60 -58 25 0 60 38
60 65 0 51 -75 74 -104 33z"/>
<path d="M6512 7628 c-23 -30 -23 -56 2 -84 21 -25 27 -27 52 -19 51 18 62 79
20 107 -18 12 -63 9 -74 -4z"/>
<path d="M1854 6931 c-67 -28 -85 -121 -35 -172 37 -36 70 -37 111 -3 61 52
71 111 26 153 -26 24 -72 34 -102 22z m74 -63 c7 -7 12 -24 12 -38 0 -53 -57
-69 -86 -25 -15 23 -15 27 0 50 18 27 54 33 74 13z"/>
<path d="M8354 6930 c-30 -12 -54 -49 -54 -84 0 -35 76 -116 109 -116 11 0 34
12 51 28 87 78 2 216 -106 172z m76 -71 c17 -30 4 -68 -24 -75 -32 -8 -66 12
-66 38 0 51 68 79 90 37z"/>
<path d="M4002 6183 c-19 -9 -44 -32 -58 -52 l-24 -36 0 -953 c0 -1042 -3
-993 59 -1045 l33 -27 1119 0 c1234 0 1153 -4 1201 62 l23 33 0 967 c0 961 0
967 -21 994 -11 15 -33 37 -48 48 -27 21 -34 21 -1139 23 -1015 2 -1115 1
-1145 -14z m908 -728 l0 -85 -95 0 -95 0 0 85 0 85 95 0 95 0 0 -85z m320 0
l0 -85 -95 0 -95 0 0 85 0 85 95 0 95 0 0 -85z m320 0 l0 -85 -95 0 -95 0 0
78 c0 43 3 82 7 85 3 4 46 7 95 7 l88 0 0 -85z m-640 -225 l0 -30 -94 0 c-98
0 -112 6 -101 40 6 18 15 20 101 20 l94 0 0 -30z m320 0 l0 -30 -95 0 -95 0 0
30 0 30 95 0 95 0 0 -30z m320 0 l0 -30 -95 0 -95 0 0 30 0 30 95 0 95 0 0
-30z m-640 -180 l0 -30 -95 0 -95 0 0 30 0 30 95 0 95 0 0 -30z m320 0 l0 -30
-95 0 -95 0 0 30 0 30 95 0 95 0 0 -30z m320 0 l0 -30 -95 0 -95 0 0 30 0 30
95 0 95 0 0 -30z m-640 -215 l0 -85 -95 0 -95 0 0 85 0 85 95 0 95 0 0 -85z
m320 0 l0 -85 -95 0 -95 0 0 85 0 85 95 0 95 0 0 -85z m320 0 l0 -85 -95 0
-95 0 0 85 0 85 95 0 95 0 0 -85z m-640 -225 l0 -30 -95 0 -95 0 0 30 0 30 95
0 95 0 0 -30z m320 0 l0 -30 -95 0 -95 0 0 30 0 30 95 0 95 0 0 -30z m320 0
l0 -30 -95 0 -95 0 0 30 0 30 95 0 95 0 0 -30z"/>
<path d="M1620 6040 c-11 -11 -20 -28 -20 -38 0 -29 29 -62 56 -62 29 0 64 32
64 60 0 26 -34 60 -60 60 -11 0 -29 -9 -40 -20z"/>
<path d="M2381 6034 c-12 -15 -21 -30 -21 -34 0 -19 44 -60 63 -60 45 0 75 46
56 83 -24 45 -67 50 -98 11z"/>
<path d="M7810 6040 c-24 -24 -25 -48 -4 -78 19 -27 64 -29 87 -4 53 58 -28
137 -83 82z"/>
<path d="M8564 6034 c-33 -49 9 -107 63 -88 62 21 48 114 -17 114 -21 0 -35
-8 -46 -26z"/>
<path d="M1617 4312 c-35 -39 -9 -102 41 -102 28 0 62 34 62 60 0 27 -35 60
-63 60 -13 0 -31 -8 -40 -18z"/>
<path d="M2388 4313 c-26 -31 -28 -51 -7 -77 43 -54 122 -11 97 53 -16 44 -62
56 -90 24z"/>
<path d="M7816 4315 c-25 -25 -29 -54 -12 -80 32 -48 106 -22 106 37 0 48 -61
76 -94 43z"/>
<path d="M8564 4304 c-33 -49 9 -107 63 -88 62 21 48 114 -17 114 -21 0 -35
-8 -46 -26z"/>
<path d="M1815 3485 c-41 -40 -27 -137 24 -165 54 -29 133 3 144 57 18 93
-105 172 -168 108z m111 -23 c20 -14 25 -45 9 -68 -20 -31 -59 -31 -79 -2 -20
29 -20 34 4 58 20 20 47 25 66 12z"/>
<path d="M8339 3471 c-43 -42 -49 -73 -24 -120 26 -52 96 -57 147 -12 28 25
33 36 33 76 0 39 -5 51 -28 71 -42 36 -82 32 -128 -15z m97 -37 c13 -50 -48
-88 -84 -52 -19 19 -14 65 9 82 27 19 67 3 75 -30z"/>
<path d="M3701 2697 c-33 -17 -45 -39 -37 -71 14 -56 98 -56 112 0 12 49 -34
92 -75 71z"/>
<path d="M6512 2688 c-24 -31 -23 -57 3 -83 26 -26 52 -27 83 -3 15 13 16 70
0 86 -16 16 -73 15 -86 0z"/>
<path d="M8355 2707 c-80 -36 -74 -155 9 -195 35 -18 71 -8 107 28 79 79 -14
212 -116 167z m75 -57 c36 -36 16 -90 -34 -90 -29 0 -46 18 -46 50 0 29 9 45
30 53 25 9 29 8 50 -13z"/>
<path d="M1835 2706 c-81 -35 -75 -153 10 -195 22 -11 36 -11 66 -2 49 15 69
44 69 101 0 50 -22 84 -67 101 -31 12 -41 11 -78 -5z m83 -58 c7 -7 12 -24 12
-38 0 -32 -17 -50 -46 -50 -29 0 -54 25 -54 54 0 29 18 46 50 46 14 0 31 -5
38 -12z"/>
<path d="M3115 2719 c-51 -29 -60 -85 -20 -124 30 -30 64 -32 99 -4 66 52 -6
169 -79 128z m56 -29 c23 -13 25 -53 3 -74 -20 -20 -33 -20 -56 1 -22 20 -23
46 -2 67 18 19 28 20 55 6z"/>
<path d="M2479 2151 c-33 -34 -38 -75 -14 -121 47 -91 185 -53 185 50 0 58
-42 100 -100 100 -33 0 -48 -6 -71 -29z m111 -40 c16 -31 12 -49 -15 -67 -23
-15 -27 -15 -50 0 -27 18 -33 54 -13 74 19 19 66 15 78 -7z"/>
<path d="M4180 2717 c-43 -15 -75 -71 -65 -117 15 -66 110 -104 161 -62 67 54
56 146 -22 178 -18 8 -35 14 -36 13 -2 0 -19 -5 -38 -12z m80 -67 c26 -48 -21
-96 -69 -70 -24 12 -29 58 -9 78 19 19 66 15 78 -8z"/>
<path d="M4147 1873 c-45 -51 -3 -119 61 -99 10 4 24 18 31 32 26 58 -49 114
-92 67z"/>
<path d="M6024 2716 c-78 -34 -85 -127 -14 -183 22 -18 92 -15 116 5 65 52 53
147 -21 178 -41 17 -42 17 -81 0z m74 -58 c7 -7 12 -24 12 -38 0 -32 -17 -50
-46 -50 -23 0 -54 33 -54 57 0 34 62 57 88 31z"/>
<path d="M6064 1882 c-23 -15 -34 -50 -25 -75 24 -61 111 -41 111 26 0 44 -50
73 -86 49z"/>
<path d="M7093 2718 c-47 -23 -53 -103 -10 -133 49 -35 120 4 120 65 0 24 -7
40 -27 57 -29 25 -49 28 -83 11z m67 -38 c11 -11 20 -24 20 -30 0 -12 -37 -50
-48 -50 -14 0 -52 31 -52 43 0 20 30 57 46 57 8 0 23 -9 34 -20z"/>
<path d="M7659 2151 c-39 -39 -40 -96 -3 -140 22 -26 33 -31 71 -31 36 0 50 6
74 29 64 65 20 171 -71 171 -33 0 -48 -6 -71 -29z m111 -41 c24 -45 -25 -94
-69 -71 -23 13 -29 59 -9 79 20 20 66 15 78 -8z"/>
</g>
</svg>
